# xmcd CD database file
#
# Track frame offsets:
#	179
#	14894
#	37891
#	54738
#	77388
#	104211
#	122030
#	145623
#	160165
#	180728
#
# Disc length: 2768 seconds
#
# Revision: 2
# Processed by: cddbd v1.5.2PL0 Copyright (c) Steve Scherf et al.
# Submitted via: jetAudio 7
#
DISCID=830ace0a
DTITLE=安部恭弘 - Hold Me Tight
DYEAR=1900
DGENRE=Pop
TTITLE0=We Got It!
TTITLE1=Season
TTITLE2=I Love You
TTITLE3=裸足のバレリーナ
TTITLE4=Hold Me Tight
TTITLE5=CAFE FLAMINGO
TTITLE6=SINGLE ROOM
TTITLE7=BAD BOY
TTITLE8=FUNNY LADY
TTITLE9=マンハッタン
EXTD=
EXTT0=
EXTT1=
EXTT2=
EXTT3=
EXTT4=
EXTT5=
EXTT6=
EXTT7=
EXTT8=
EXTT9=
PLAYORDER=
